<svg width="242" height="28" xmlns="http://www.w3.org/2000/svg"><g fill="#FFF"><path d="M21.223.044l-7.397 13.123L6.78.044.396 22.284l6.077.968L8.41 13.96l5.416 9.777 5.636-9.953 1.893 9.292 5.944-.484zm11.36 7.839l-4.007.396v14.885l4.007-.572zm33.596 15.545c4.447 0 8.014-3.61 8.014-8.015 0-4.447-3.611-8.015-8.014-8.015-4.403 0-8.014 3.612-8.014 8.015 0 4.404 3.567 8.015 8.014 8.015m-4.051-8.015a4.087 4.087 0 0 1 4.095-4.095 4.087 4.087 0 0 1 4.095 4.095 4.087 4.087 0 0 1-4.095 4.096c-2.29-.044-4.095-1.85-4.095-4.096"/><path d="M50.284 11.23v3.699c3.346 0 3.346-3.831 0-3.7zm-3.699 11.846V7.883h6.076c5.768 0 4.976 8.323 1.938 8.323l4.007 5.769-3.523 1.453-4.8-6.561v6.253h-3.698v-.044zm27.299-.705L78.2 7.486l4.668 8.764 4.931-8.764 4.095 15.106-3.963.308-1.277-6.21-3.786 6.65-3.61-6.561-1.278 6.209zm62.965-5.328h2.246l-1.277-2.422-.969 2.422zm1.057-9.512l8.41 14.796-3.831.705-2.07-2.818h-5.283l-1.277 2.862-4.227-.705 8.278-14.84zM99.599 17.13h2.245l-1.277-2.421-.968 2.422zm1.1-9.6l8.322 14.885-3.698.881-2.246-3.038-5.284.088-1.277 2.862-4.183-.793L100.7 7.531zm22.721.22v15.854l-9.775-8.323v7.707h-4.007V7.442h.484l9.29 7.927V7.751zm1.364.353l4.183-.352v15.237l-4.183.308zM44.648 23.032c-.925.352-1.674.484-2.686.484-4.447 0-8.014-3.61-8.014-8.015 0-4.403 3.61-8.015 8.014-8.015 1.056 0 1.85.133 2.774.485l.44 5.064c-.616-.925-1.981-1.63-3.214-1.63a4.087 4.087 0 0 0-4.095 4.096 4.087 4.087 0 0 0 4.095 4.096 4.076 4.076 0 0 0 3.39-1.806l-.704 5.241zM222.422 4.184h.088l.132-.132c.176-.133.309-.265.397-.397.088-.132.088-.308.044-.484 0-.044-.044-.088-.044-.132-.044-.044-.088-.132-.133-.22-.044-.089-.088-.133-.132-.22a.746.746 0 0 0-.176-.22c-.044-.045-.132-.089-.176-.133-.044-.044-.088-.044-.132-.044l-.044.044c-.044 0-.044.044-.088.044s-.044.044-.088.044c0 .044-.044.088-.044.176s0 .176.044.308c0 .133.044.22.088.353.044.132.044.264.088.352.044.132.044.22.088.308a.479.479 0 0 1 .044.22s0 .045.044.045v.088m-.264 1.233l-.044-.088-.044-.088c0-.044-.044-.089-.044-.133-.044-.088-.044-.176-.088-.264l-.176-.484c0-.044-.044-.132-.044-.176 0-.044-.044-.088-.044-.132l-.044-.089c0-.044-.044-.088-.044-.176a.626.626 0 0 0-.089-.264c-.044-.088-.044-.22-.088-.308s-.044-.22-.088-.308c-.044-.089-.044-.177-.044-.265 0-.088-.044-.132-.044-.176v-.132c0-.044 0-.044.044-.088l.044-.044h.088c.044 0 .044 0 .088.044.045 0 .045 0 .089.044h.088c.044 0 .088-.044.132-.088l.132-.132.132-.132c.044-.044.088-.088.176-.088.132-.044.264-.044.352-.044.132 0 .22.044.308.088.089.044.177.132.265.176.088.088.132.176.22.264l.132.264c.044.088.088.176.088.22a.75.75 0 0 1 0 .44 2.057 2.057 0 0 1-.22.441c-.088.132-.22.264-.396.397a3.085 3.085 0 0 1-.44.352v.176l.087.308c.044.088.088.22.132.309.044.088.088.176.177.308 0 .044 0 .088-.045.132 0 .044-.088.088-.132.088a.558.558 0 0 1-.264.044c-.088 0-.132-.044-.176-.088-.044-.044-.088-.088-.132-.176 0-.044-.044-.088-.044-.132m2.466-2.334v.352c0 .132.044.264.088.44l.132.397a.45.45 0 0 0 .22.264c.088.088.176.088.264.088a.336.336 0 0 0 .22-.088c.088-.044.132-.132.176-.22l.133-.264c.044-.089.044-.22.088-.309 0-.088.044-.176.044-.264v-.22c0-.044 0-.088-.044-.176a.626.626 0 0 0-.088-.265c-.044-.088-.044-.22-.088-.352a2.255 2.255 0 0 0-.133-.308.96.96 0 0 0-.176-.22.336.336 0 0 0-.22-.088c-.088 0-.132.044-.22.044-.044.044-.088.044-.132.088l-.088.088c-.044.044-.044.088-.044.088 0 .044-.044.132-.044.22s-.044.176-.044.264c0 .088-.044.176-.044.265v.176m-.705.704l-.044-.264a1.668 1.668 0 0 1 0-.66c.044-.22.088-.44.176-.661.088-.22.22-.352.397-.529a1.49 1.49 0 0 1 .66-.264h.044c.132 0 .264 0 .396.044s.22.132.353.22c.088.089.176.177.264.309.088.132.176.264.22.352l.132.396c.044.132.044.22.088.353v.352c0 .132-.044.264-.088.396s-.088.265-.176.397a2.443 2.443 0 0 1-.264.352c-.088.088-.22.176-.397.264a.887.887 0 0 1-.484.132h-.044c-.132 0-.264 0-.44-.088a2.466 2.466 0 0 1-.397-.308 2.42 2.42 0 0 1-.308-.396 1.635 1.635 0 0 1-.088-.397m3.699-.352l.088.044.176-.044c.22-.044.396-.088.528-.22a.462.462 0 0 0 .22-.397v-.352c0-.088 0-.176-.043-.264 0-.088-.045-.176-.045-.264-.044-.088-.044-.132-.088-.176-.044-.045-.088-.089-.132-.089h-.264c-.044 0-.044.044-.088.133-.044.088-.044.176-.088.264-.044.088-.044.22-.088.352-.044.132-.044.264-.088.352-.044.133-.044.22-.044.309 0 .088-.044.176-.044.22v.132m-.793.969v-.352c0-.089 0-.177.044-.309l.044-.484c0-.044 0-.132.044-.176v-.221c0-.044 0-.088.044-.176 0-.088.044-.176.044-.264 0-.088.044-.22.044-.308 0-.132.044-.22.044-.308.045-.089.045-.177.045-.265 0-.088.044-.132.044-.176l.044-.044.044-.044.044-.044h.088c.044 0 .044 0 .088.044l.044.044.044.044s.044.044.088.044h.176c.044 0 .088-.044.176-.044.044 0 .132-.044.176-.044h.176a.5.5 0 0 1 .353.132.53.53 0 0 1 .22.22c.044.089.132.177.132.265.044.088.044.22.088.308v.572a.656.656 0 0 1-.176.397c-.088.132-.22.22-.396.308a2.693 2.693 0 0 1-.529.22l-.528.132-.044.088-.044.309v.308c0 .132 0 .22.044.352l-.088.088c-.044.044-.088.044-.176.044a.626.626 0 0 1-.265-.088c-.044-.044-.088-.088-.132-.176-.044-.044-.044-.132-.044-.22v-.176m4.8 1.761c-.044 0-.132-.044-.265-.088a1.581 1.581 0 0 1-.44-.308.87.87 0 0 1-.264-.484c-.044-.177-.044-.397 0-.661s.132-.572.308-.925a2.96 2.96 0 0 1 .308-.484c.133-.176.265-.308.44-.397.177-.088.353-.176.573-.22.22-.044.44-.044.66.044.089.044.133.044.22.088.133.044.22.132.309.22.088.089.132.177.22.265a.637.637 0 0 1 .088.308v.308c0 .044 0 .088-.044.132l-.352.177-.088-.044c0-.044.044-.089.044-.133 0-.044 0-.044.044-.088s.044-.132.044-.22V3.48c0-.044-.044-.132-.044-.176-.044-.044-.044-.088-.088-.176a.608.608 0 0 0-.176-.132h-.044s-.044 0-.044-.044a.28.28 0 0 0-.265 0l-.264.132c-.088.088-.176.132-.264.264-.088.088-.176.22-.264.308-.088.132-.176.22-.22.352-.088.133-.132.265-.176.353a.71.71 0 0 0-.132.396c0 .132-.044.22-.044.308v.044c-.045.133 0 .265.044.397s.132.22.308.308h.088c.132.044.22.044.308.044s.132-.044.22-.088l.132-.132c.044-.044.088-.088.132-.176v-.044l.088-.22a.608.608 0 0 1 .133-.177c.044-.044.088-.044.132-.044.044 0 .132 0 .176.044 0 .088-.044.177-.044.265-.044.088-.044.176-.088.264-.044.132-.132.22-.176.308-.089.088-.177.176-.265.22-.088.044-.22.088-.352.132-.308.044-.44.044-.616-.044m1.893-.837a3.52 3.52 0 0 1 .572-.573l.66-.528c.045-.044.045-.044.089-.044h.132l.132.132c.088.044.132.132.176.176.044.088.044.132 0 .176l-.044.044-.044.044-1.1.969-.177.264-.044.044-.088.088c-.044.044-.088.132-.132.22-.044.089-.088.133-.088.22-.044.089-.044.177 0 .22 0 .089.044.133.132.221.088.088.176.132.264.132.088 0 .176 0 .265-.044.088-.044.176-.088.22-.132a.607.607 0 0 0 .176-.132l.264-.264c.088-.088.132-.176.22-.265l.308-.396c.044-.044.088-.088.088-.132.044-.044.044-.088.088-.132.045-.044.045-.088.089-.132.044-.044.044-.088.088-.176l.22-.397v-.044s0-.044.044-.044l.044-.044.22.132.044.044s.044.044 0 .044c0 .044-.044.132-.044.177-.044.088-.044.132-.088.22a.334.334 0 0 0-.088.176c-.044.044-.088.088-.088.132l-.969 1.233a1.915 1.915 0 0 1-.308.264 1.377 1.377 0 0 1-.44.22c-.177.044-.309.044-.485.044-.176-.044-.352-.088-.484-.22-.132-.088-.22-.22-.308-.308-.044-.132-.088-.22-.088-.352 0-.132 0-.22.044-.309.044-.088.088-.22.132-.308.044-.088.132-.176.176-.264.088-.22.132-.308.22-.396zm2.686 1.057l.748-.485c.044 0 .044-.044.089-.044.044 0 .044 0 .088-.044h.088c.044 0 .044.044.088.088a.608.608 0 0 1 .132.176c.044.044.088.088.088.176 0 .044.044.088.044.133 0 .044-.044.088-.088.132l-.132.088-1.806 1.277-.044.044c-.044.044-.044.088-.088.132-.044.044-.088.088-.088.132-.044.044-.044.088-.088.088 0 .044-.044.044-.044.088v.088l.044.044.088.088c.044.044.044.044.044.089l.397.528v.044s0 .044-.044.044c-.044.044-.088.044-.177-.044-.088-.088-.22-.176-.308-.264a1.915 1.915 0 0 0-.308-.264.96.96 0 0 0-.22-.133.608.608 0 0 1-.176-.132c-.044-.044-.044-.132-.044-.176.044-.088.088-.176.132-.308.088-.088.176-.22.264-.352.088-.133.22-.265.352-.397l.44-.44c.22-.132.353-.264.529-.396m2.201 1.761v-.044c0-.044-.044-.088-.088-.176s-.088-.132-.088-.22c-.044-.088-.044-.132-.088-.22 0-.089 0-.133.044-.133h.088l.088.088c.133.177.22.309.309.44.088.133.176.31.264.441l.176.308.176.353c.044.088.088.132.132.22.044.044.044.088.088.132 0 0 0 .044.044.088 0 .044.044.088.044.132 0 .044.044.088.044.132 0 .044 0 .044-.044.088h-.132l-.132-.132c-.044-.044-.088-.132-.176-.22a.963.963 0 0 0-.132-.22c-.044-.088-.088-.132-.132-.22-.044-.044-.088-.088-.088-.132l-.044-.044-1.101.572c-.264.176-.528.308-.793.485a12.51 12.51 0 0 1-.792.484l-.176.088s-.044-.044-.044-.088c-.044-.044-.044-.088-.088-.088-.044-.088-.088-.176-.044-.264 0-.088.044-.132.088-.22a.59.59 0 0 1 .176-.133c.044-.044.088-.088.132-.088.264-.176.484-.308.748-.484.22-.132.485-.308.705-.44.132-.045.22-.133.352-.177a2.96 2.96 0 0 1 .484-.308m-.484 2.423c.264-.089.529-.133.793-.177.264-.044.528-.044.836-.088h.132c.044 0 .088 0 .088.044l.044.176a.559.559 0 0 1 .045.264c0 .088-.045.132-.089.177h-.088l-1.453.22-.308.088-.088.044-.132.044c-.088.044-.132.044-.22.088s-.132.088-.22.132c-.044.044-.088.132-.132.176a.28.28 0 0 0 0 .264.561.561 0 0 0 .176.265.625.625 0 0 0 .264.088h.264c.088 0 .176-.044.22-.044.132-.044.264-.044.352-.088.089-.044.22-.044.309-.088l.484-.177c.044 0 .132-.044.176-.044.044 0 .088-.044.132-.044.044 0 .088-.044.132-.088.044-.044.132-.044.176-.088l.397-.22h.176l.132.22v.088c-.044.044-.088.088-.176.132-.044.044-.132.088-.176.132a.334.334 0 0 1-.176.089c-.044.044-.132.044-.132.044l-1.498.484c-.132.044-.264.044-.396.088-.176 0-.308 0-.484-.044s-.308-.132-.44-.22a1.582 1.582 0 0 1-.309-.44c-.044-.177-.088-.309-.088-.44 0-.133.044-.221.088-.353.044-.088.132-.176.22-.264a.922.922 0 0 1 .265-.177c.088-.044.22-.088.308-.132.176-.088.264-.088.396-.132zm.925 3.17c-.044 0-.044 0-.044.044v.044c0 .088.044.22.088.308a.921.921 0 0 0 .176.264.76.76 0 0 0 .22.177.397.397 0 0 0 .22.044c.22 0 .397-.088.573-.22l.528-.397v-.264s-.044 0-.088-.044h-1.321l-.352.044zm-.44.132v-.044s0-.044-.045-.044l-.352.044c-.132 0-.264.044-.352.044-.132.044-.264.044-.352.044-.044 0-.088 0-.088-.044-.044-.044-.044-.088-.044-.176v-.176c0-.044.044-.132.044-.176.044-.044.044-.089.088-.133.044-.044.088-.044.132-.044l3.082-.176h.132c.044 0 .088 0 .132.044.044 0 .088.044.088.088.044.044.044.088.044.132l-.044.045c0 .044-.044.044-.044.088s-.044.044-.044.044v.044c0 .044 0 .088.044.132 0 .044.044.088.088.132.044.044.044.088.088.132 0 .044.044.088.044.132v.22c0 .088 0 .132-.044.176a.334.334 0 0 1-.088.177.608.608 0 0 0-.132.176c-.044 0-.088.044-.132.088-.044.044-.132.088-.22.132-.088.044-.132.088-.22.088-.044.044-.088.044-.132.088-.088.044-.132.088-.176.088-.044 0-.089.044-.177.044-.132 0-.22 0-.308-.044s-.176-.132-.264-.176a1.168 1.168 0 0 1-.22-.264c-.088-.132-.132-.22-.22-.308 0 0 0-.044-.044-.044 0-.045-.044-.045-.044-.045l-.088.089-.133.264-.132.264-.088.176c-.088.132-.22.264-.308.352a.71.71 0 0 1-.396.133h-.22c0-.044-.044-.088-.088-.133-.044-.044-.044-.088-.088-.132-.044-.044-.044-.088-.089-.132 0-.044-.044-.088-.044-.088v-.044c0-.044 0-.088.044-.088.045 0 .045-.044.089-.044l.616-.264c.044-.044.132-.088.176-.132a.773.773 0 0 0 .22-.176.773.773 0 0 0 .176-.22c.132-.133.132-.265.132-.353z"/><path d="M237.349 15.898a3.35 3.35 0 0 1 .924-.132c.309 0 .617 0 .925.044.132 0 .264.044.396.044.132.044.265.044.397.088h.264c.088 0 .176.044.22.044.088.044.132.044.22.088.044.044.132.088.176.176a.626.626 0 0 1 .088.264v1.101c0 .044 0 .132-.044.176 0 .044-.044.133-.044.177 0 .044-.044.044-.088.044s-.044-.044-.088-.133c-.044-.088-.044-.176-.044-.264 0-.088-.044-.176-.044-.264 0-.088-.044-.132-.044-.176v-.485s-.044 0-.088-.044c-.044 0-.088-.044-.088-.044s-.044 0-.088-.044c-.044 0-.132-.044-.22-.044s-.176-.044-.265-.044c-.088 0-.176-.044-.22-.044l-.044.044c0 .088.044.176.044.265v.66c0 .044-.044.088-.044.088-.044.044-.044.044-.088.044l-.132-.264c-.044-.088-.044-.176-.044-.308v-.617h-.088l-.616-.088h-.749l-.044.044-.132 1.145c0 .044-.044.088-.044.088h-.088c-.044 0-.044-.044-.088-.088 0-.044-.044-.132-.044-.22v-1.057c0-.044 0-.088-.044-.132 0-.044 0-.088-.044-.132v-.132c0-.088.044-.132.088-.132-.132.308-.088.308-.044.264m-3.039-.485h-5.151a2.669 2.669 0 0 1-2.686 2.687 2.669 2.669 0 0 1-2.686-2.687 2.669 2.669 0 0 1 2.686-2.686h.396c.088 0 .132.044.22.044.044 0 .044 0 .089.044.088 0 .132.044.22.044.044 0 .044 0 .088.044l.264.132a.921.921 0 0 1 .264.176c.088.044.176.133.22.177 0 0 .044 0 .044.044l.176.176.044.044c.044.088.133.132.177.22l4.227-2.95a7.782 7.782 0 0 0-6.429-3.347 7.76 7.76 0 0 0-6.517 3.523V7.795h-5.151v6.473l-5.68-5.68c-1.057-1.057-2.774-1.057-3.875.043-.528.529-.793 1.19-.793 1.85v12.771h5.152V16.78l5.68 5.68c1.057 1.057 2.818 1.101 3.875.045a2.813 2.813 0 0 0 .792-1.762v-.969c1.233 1.85 3.259 3.17 5.592 3.435 1.541.088 2.29-.176 3.083-.484-.133.264-.22.44-.353.616l3.743 3.743s.484-.616.66-.836c.177-.22.573-.793.97-1.894.351-1.057.66-2.51.66-4.536v-4.403m-33.288-2.292c-1.453 0-2.598 1.19-2.598 2.555V18.1h-7.309l5.68-5.681c1.057-1.057 1.057-2.775-.044-3.876-.616-.616-1.453-.792-2.246-.792h-9.819a2.528 2.528 0 0 0-2.553 2.554c0 1.453 1.188 2.598 2.553 2.598h3.92l-5.68 5.681c-1.058 1.057-1.102 2.819-.045 3.875a2.812 2.812 0 0 0 1.761.793h13.826l5.064 3.7v-11.23c.044-1.41-1.101-2.599-2.51-2.599"/><path d="M200.89 7.222a2.669 2.669 0 0 0-2.685 2.687 2.669 2.669 0 0 0 2.686 2.686 2.669 2.669 0 0 0 2.686-2.686 2.669 2.669 0 0 0-2.686-2.687"/></g></svg>